<svg xmlns="http://www.w3.org/2000/svg" width="31935" height="1416" viewBox="0 0 31935 1416"><defs><marker id="arrowhead" markerWidth="10" markerHeight="7" refX="10" refY="3.5" orient="auto"><polygon points="0 0, 10 3.5, 0 7" fill="#444"/></marker></defs><style>text{font-family:sans-serif;fill:#222;font-size:12px}.box-title{font-weight:bold}.note text,.gwt text{font-size:11px}.code{font-family:monospace}.lane-label{font-weight:bold;font-size:13px}.chapter-label{font-weight:bold;font-size:12px}.chapter-range{font-size:10px;fill:#666}.slice-label{font-size:11px}.slice-status{font-size:10px;fill:#444}</style><g class="swimlane"><rect x="10" y="20" width="31914" height="120" rx="6" fill="#fafafa" stroke="#e0e0e0"/><text class="lane-label" x="24" y="44">UI/Automation</text></g><g class="swimlane"><rect x="10" y="160" width="31914" height="240" rx="6" fill="#fafafa" stroke="#e0e0e0"/><text class="lane-label" x="24" y="184">Command/Read Model</text></g><g class="swimlane"><rect x="10" y="420" width="31914" height="120" rx="6" fill="#fafafa" stroke="#e0e0e0"/><text class="lane-label" x="24" y="444">Events</text></g><g class="swimlane"><rect x="10" y="560" width="31914" height="120" rx="6" fill="#fafafa" stroke="#e0e0e0"/><text class="lane-label" x="24" y="584">Events: Operations</text></g><g class="swimlane"><rect x="10" y="700" width="31914" height="120" rx="6" fill="#fafafa" stroke="#e0e0e0"/><text class="lane-label" x="24" y="724">Events: Compensation</text></g><g class="swimlane"><rect x="10" y="840" width="31914" height="120" rx="6" fill="#fafafa" stroke="#e0e0e0"/><text class="lane-label" x="24" y="864">Events: Finance</text></g><path d="M 340.0 57.0 L 728.0 205.0" fill="none" stroke="#666" stroke-width="1.5" marker-end="url(#arrowhead)"/><path d="M 1331.2 205.0 L 1371.2 465.0" fill="none" stroke="#666" stroke-width="1.5" marker-end="url(#arrowhead)"/><path d="M 340.0 57.0 L 2230.4 205.0" fill="none" stroke="#666" stroke-width="1.5" marker-end="url(#arrowhead)"/><path d="M 2797.6 205.0 L 2837.6 465.0" fill="none" stroke="#666" stroke-width="1.5" marker-end="url(#arrowhead)"/><path d="M 3620.8 465.0 L 3660.8 229.0" fill="none" stroke="#666" stroke-width="1.5" marker-end="url(#arrowhead)"/><path d="M 4468.0 605.0 L 4508.0 57.0" fill="none" stroke="#666" stroke-width="1.5" marker-end="url(#arrowhead)"/><path d="M 4687.6 57.0 L 4727.6 205.0" fill="none" stroke="#666" stroke-width="1.5" marker-end="url(#arrowhead)"/><path d="M 5755.6 205.0 L 5795.6 465.0" fill="none" stroke="#666" stroke-width="1.5" marker-end="url(#arrowhead)"/><path d="M 4687.6 57.0 L 6676.4 205.0" fill="none" stroke="#666" stroke-width="1.5" marker-end="url(#arrowhead)"/><path d="M 7142.8 205.0 L 7182.8 465.0" fill="none" stroke="#666" stroke-width="1.5" marker-end="url(#arrowhead)"/><path d="M 4687.6 57.0 L 7818.8 205.0" fill="none" stroke="#666" stroke-width="1.5" marker-end="url(#arrowhead)"/><path d="M 8472.4 205.0 L 8512.4 465.0" fill="none" stroke="#666" stroke-width="1.5" marker-end="url(#arrowhead)"/><path d="M 9598.0 465.0 L 9638.0 285.0" fill="none" stroke="#666" stroke-width="1.5" marker-end="url(#arrowhead)"/><path d="M 10474.0 605.0 L 10514.0 57.0" fill="none" stroke="#666" stroke-width="1.5" marker-end="url(#arrowhead)"/><path d="M 10746.8 57.0 L 10786.8 205.0" fill="none" stroke="#666" stroke-width="1.5" marker-end="url(#arrowhead)"/><path d="M 11145.2 205.0 L 11185.2 465.0" fill="none" stroke="#666" stroke-width="1.5" marker-end="url(#arrowhead)"/><path d="M 11788.4 465.0 L 11828.4 205.0" fill="none" stroke="#666" stroke-width="1.5" marker-end="url(#arrowhead)"/><path d="M 12981.2 745.0 L 13021.2 57.0" fill="none" stroke="#666" stroke-width="1.5" marker-end="url(#arrowhead)"/><path d="M 13170.4 57.0 L 13210.4 205.0" fill="none" stroke="#666" stroke-width="1.5" marker-end="url(#arrowhead)"/><path d="M 14216.8 205.0 L 14256.8 465.0" fill="none" stroke="#666" stroke-width="1.5" marker-end="url(#arrowhead)"/><path d="M 13170.4 57.0 L 15267.2 205.0" fill="none" stroke="#666" stroke-width="1.5" marker-end="url(#arrowhead)"/><path d="M 15841.6 205.0 L 15881.6 465.0" fill="none" stroke="#666" stroke-width="1.5" marker-end="url(#arrowhead)"/><path d="M 16607.2 465.0 L 16647.2 285.0" fill="none" stroke="#666" stroke-width="1.5" marker-end="url(#arrowhead)"/><path d="M 17512.0 885.0 L 17552.0 57.0" fill="none" stroke="#666" stroke-width="1.5" marker-end="url(#arrowhead)"/><path d="M 17746.8 57.0 L 17786.8 205.0" fill="none" stroke="#666" stroke-width="1.5" marker-end="url(#arrowhead)"/><path d="M 18390.0 205.0 L 18430.0 465.0" fill="none" stroke="#666" stroke-width="1.5" marker-end="url(#arrowhead)"/><path d="M 18390.0 205.0 L 19087.6 465.0" fill="none" stroke="#666" stroke-width="1.5" marker-end="url(#arrowhead)"/><path d="M 19842.0 465.0 L 19882.0 205.0" fill="none" stroke="#666" stroke-width="1.5" marker-end="url(#arrowhead)"/><path d="M 21344.4 885.0 L 21384.4 57.0" fill="none" stroke="#666" stroke-width="1.5" marker-end="url(#arrowhead)"/><path d="M 21632.4 57.0 L 21672.4 205.0" fill="none" stroke="#666" stroke-width="1.5" marker-end="url(#arrowhead)"/><path d="M 22124.4 205.0 L 22164.4 465.0" fill="none" stroke="#666" stroke-width="1.5" marker-end="url(#arrowhead)"/><path d="M 22882.8 465.0 L 22922.8 205.0" fill="none" stroke="#666" stroke-width="1.5" marker-end="url(#arrowhead)"/><path d="M 24018.0 885.0 L 24058.0 57.0" fill="none" stroke="#666" stroke-width="1.5" marker-end="url(#arrowhead)"/><path d="M 24222.4 57.0 L 24262.4 205.0" fill="none" stroke="#666" stroke-width="1.5" marker-end="url(#arrowhead)"/><path d="M 25398.4 205.0 L 25438.4 465.0" fill="none" stroke="#666" stroke-width="1.5" marker-end="url(#arrowhead)"/><path d="M 24222.4 57.0 L 26038.4 205.0" fill="none" stroke="#666" stroke-width="1.5" marker-end="url(#arrowhead)"/><path d="M 26598.4 205.0 L 26638.4 465.0" fill="none" stroke="#666" stroke-width="1.5" marker-end="url(#arrowhead)"/><path d="M 27299.2 465.0 L 27339.2 253.0" fill="none" stroke="#666" stroke-width="1.5" marker-end="url(#arrowhead)"/><path d="M 27618.4 253.0 L 27658.4 57.0" fill="none" stroke="#666" stroke-width="1.5" marker-end="url(#arrowhead)"/><path d="M 27883.6 57.0 L 27923.6 205.0" fill="none" stroke="#666" stroke-width="1.5" marker-end="url(#arrowhead)"/><path d="M 28418.8 205.0 L 28458.8 465.0" fill="none" stroke="#666" stroke-width="1.5" marker-end="url(#arrowhead)"/><path d="M 29054.8 465.0 L 29094.8 205.0" fill="none" stroke="#666" stroke-width="1.5" marker-end="url(#arrowhead)"/><path d="M 30002.8 605.0 L 30042.8 57.0" fill="none" stroke="#666" stroke-width="1.5" marker-end="url(#arrowhead)"/><path d="M 30169.2 57.0 L 30209.2 205.0" fill="none" stroke="#666" stroke-width="1.5" marker-end="url(#arrowhead)"/><path d="M 30834.0 205.0 L 30874.0 465.0" fill="none" stroke="#666" stroke-width="1.5" marker-end="url(#arrowhead)"/><path d="M 31275.6 465.0 L 31315.6 205.0" fill="none" stroke="#666" stroke-width="1.5" marker-end="url(#arrowhead)"/><g class="box"><rect x="220" y="40" width="120" height="34" rx="4" fill="#f8d4bc" stroke="#d38e5f"/><text class="box-title" x="232" y="62">FlightDeck</text></g><g class="box"><rect x="380" y="180" width="308" height="130" rx="4" fill="#bcd6fe" stroke="#679ac3"/><text class="box-title" x="392" y="202">FlightStatus</text><text class="code" x="392" y="222">flightId: &#34;HLT-421&#34;</text><text class="code" x="392" y="238">  origin: &#34;JFK&#34;</text><text class="code" x="392" y="254">  destination: &#34;LAX&#34;</text><text class="code" x="392" y="270">  scheduledArrival: &#34;2024-06-15T14:30:00Z&#34;</text><text class="code" x="392" y="286">  currentStatus: &#34;in_flight&#34;</text><text class="code" x="392" y="302">  aircraftId: &#34;N42HL&#34;</text></g><g class="box"><rect x="728" y="180" width="603" height="50" rx="4" fill="#bcd6fe" stroke="#679ac3"/><text class="box-title" x="740" y="202">RecordWheelsDown</text><text class="code" x="740" y="222">flightId: &#34;HLT-421&#34;, wheelsTouchTime: &#34;2024-06-15T14:32:00Z&#34;, aircraftId: &#34;N42HL&#34;</text></g><g class="box"><rect x="1371" y="440" width="819" height="50" rx="4" fill="#d3f1a2" stroke="#84af49"/><text class="box-title" x="1383" y="462">WheelsDownRecorded</text><text class="code" x="1383" y="482">flightId: &#34;HLT-421&#34;, wheelsTouchTime: &#34;2024-06-15T14:32:00Z&#34;, aircraftId: &#34;N42HL&#34;, boundedContext: &#34;Operations&#34;</text></g><g class="box"><rect x="2230" y="180" width="567" height="50" rx="4" fill="#bcd6fe" stroke="#679ac3"/><text class="box-title" x="2242" y="202">RecordGateArrival</text><text class="code" x="2242" y="222">flightId: &#34;HLT-421&#34;, gateDoorOpenTime: &#34;2024-06-15T14:47:00Z&#34;, gateId: &#34;B12&#34;</text></g><g class="box"><rect x="2838" y="440" width="783" height="50" rx="4" fill="#d3f1a2" stroke="#84af49"/><text class="box-title" x="2850" y="462">GateOpened</text><text class="code" x="2850" y="482">flightId: &#34;HLT-421&#34;, gateDoorOpenTime: &#34;2024-06-15T14:47:00Z&#34;, gateId: &#34;B12&#34;, boundedContext: &#34;Operations&#34;</text></g><g class="box"><rect x="3661" y="180" width="308" height="98" rx="4" fill="#bcd6fe" stroke="#679ac3"/><text class="box-title" x="3673" y="202">ArrivalBoard</text><text class="code" x="3673" y="222">flightId: &#34;HLT-421&#34;</text><text class="code" x="3673" y="238">  gateId: &#34;B12&#34;</text><text class="code" x="3673" y="254">  gateDoorOpenTime: &#34;2024-06-15T14:47:00Z&#34;</text><text class="code" x="3673" y="270">  displayStatus: &#34;ARRIVED&#34;</text></g><g class="box"><rect x="4009" y="580" width="459" height="50" rx="4" fill="#d3f1a2" stroke="#84af49"/><text class="box-title" x="4021" y="602">Operations.GateOpened</text><text class="code" x="4021" y="622">flightId: &#34;HLT-421&#34;, gateDoorOpenTime: &#34;2024-06-15T14:47:00Z&#34;</text></g><g class="box"><rect x="4508" y="40" width="180" height="34" rx="4" fill="#f8d4bc" stroke="#d38e5f"/><text class="box-title" x="4520" y="62">CompensationProcessor</text></g><g class="box"><rect x="4728" y="180" width="1028" height="50" rx="4" fill="#bcd6fe" stroke="#679ac3"/><text class="box-title" x="4740" y="202">EvaluateDelay</text><text class="code" x="4740" y="222">flightId: &#34;HLT-421&#34;, scheduledArrival: &#34;2024-06-15T14:30:00Z&#34;, actualArrivalTime: &#34;2024-06-15T14:47:00Z&#34;, onTimeDefinition: &#34;gate_door_open&#34;</text></g><g class="box"><rect x="5796" y="440" width="841" height="50" rx="4" fill="#d3f1a2" stroke="#84af49"/><text class="box-title" x="5808" y="462">DelayEvaluated</text><text class="code" x="5808" y="482">flightId: &#34;HLT-421&#34;, delayMinutes: 17, isDelayed: true, onTimeThresholdMinutes: 15, boundedContext: &#34;Compensation&#34;</text></g><g class="box"><rect x="6676" y="180" width="466" height="50" rx="4" fill="#bcd6fe" stroke="#679ac3"/><text class="box-title" x="6688" y="202">VerifyPassengerEligibility</text><text class="code" x="6688" y="222">flightId: &#34;HLT-421&#34;, passengerIds: [&#34;pax-1&#34;, &#34;pax-2&#34;, &#34;pax-3&#34;]</text></g><g class="box"><rect x="7183" y="440" width="596" height="50" rx="4" fill="#d3f1a2" stroke="#84af49"/><text class="box-title" x="7195" y="462">PassengerEligibilityVerified</text><text class="code" x="7195" y="482">flightId: &#34;HLT-421&#34;, eligibleIds: [&#34;pax-1&#34;, &#34;pax-2&#34;, &#34;pax-3&#34;], ineligibleIds: []</text></g><g class="box"><rect x="7819" y="180" width="654" height="50" rx="4" fill="#bcd6fe" stroke="#679ac3"/><text class="box-title" x="7831" y="202">CalculateCompensation</text><text class="code" x="7831" y="222">flightId: &#34;HLT-421&#34;, delayMinutes: 17, eligiblePassengerIds: [&#34;pax-1&#34;, &#34;pax-2&#34;, &#34;pax-3&#34;]</text></g><g class="box"><rect x="8512" y="440" width="1086" height="50" rx="4" fill="#d3f1a2" stroke="#84af49"/><text class="box-title" x="8524" y="462">CompensationCalculated</text><text class="code" x="8524" y="482">flightId: &#34;HLT-421&#34;, totalCompensationAmount: 510.00, perPassengerAmount: 170.00, currency: &#34;USD&#34;, eligiblePassengerIds: [&#34;pax-1&#34;, &#34;pax-2&#34;, &#34;pax-3&#34;]</text></g><g class="box"><rect x="9638" y="180" width="394" height="210" rx="4" fill="#bcd6fe" stroke="#679ac3"/><text class="box-title" x="9650" y="202">DelayClaimSummary</text><text class="code" x="9650" y="222">flightId: &#34;HLT-421&#34;</text><text class="code" x="9650" y="238">  delayMinutes: 17</text><text class="code" x="9650" y="254">  eligiblePassengers: [</text><text class="code" x="9650" y="270">    { passengerId: &#34;pax-1&#34;, compensationAmount: 170.00 }</text><text class="code" x="9650" y="286">    { passengerId: &#34;pax-2&#34;, compensationAmount: 170.00 }</text><text class="code" x="9650" y="302">    { passengerId: &#34;pax-3&#34;, compensationAmount: 170.00 }</text><text class="code" x="9650" y="318">  ]</text><text class="code" x="9650" y="334">  ineligiblePassengers: []</text><text class="code" x="9650" y="350">  totalCompensation: 510.00</text><text class="code" x="9650" y="366">  currency: &#34;USD&#34;</text><text class="code" x="9650" y="382">  status: &#34;pending_disbursement&#34;</text></g><g class="box"><rect x="10072" y="580" width="402" height="50" rx="4" fill="#d3f1a2" stroke="#84af49"/><text class="box-title" x="10084" y="602">Operations.FlightClosedOnTime</text><text class="code" x="10084" y="622">flightId: &#34;HLT-421&#34;, closedAt: &#34;2024-06-15T14:28:00Z&#34;</text></g><g class="box"><rect x="10514" y="40" width="233" height="34" rx="4" fill="#f8d4bc" stroke="#d38e5f"/><text class="box-title" x="10526" y="62">CompensationClosureProcessor</text></g><g class="box"><rect x="10787" y="180" width="358" height="50" rx="4" fill="#bcd6fe" stroke="#679ac3"/><text class="box-title" x="10799" y="202">CloseCompensationCase</text><text class="code" x="10799" y="222">flightId: &#34;HLT-421&#34;, reason: &#34;on_time_no_claim&#34;</text></g><g class="box"><rect x="11185" y="440" width="603" height="50" rx="4" fill="#d3f1a2" stroke="#84af49"/><text class="box-title" x="11197" y="462">CompensationCaseClosed</text><text class="code" x="11197" y="482">flightId: &#34;HLT-421&#34;, reason: &#34;on_time_no_claim&#34;, closedAt: &#34;2024-06-15T14:30:00Z&#34;</text></g><g class="box"><rect x="11828" y="180" width="351" height="50" rx="4" fill="#bcd6fe" stroke="#679ac3"/><text class="box-title" x="11840" y="202">ClosedClaimRecord</text><text class="code" x="11840" y="222">flightId: &#34;HLT-421&#34;, status: &#34;closed_no_claim&#34;</text></g><g class="box"><rect x="12220" y="720" width="762" height="50" rx="4" fill="#d3f1a2" stroke="#84af49"/><text class="box-title" x="12232" y="742">Compensation.CompensationCalculated</text><text class="code" x="12232" y="762">flightId: &#34;HLT-421&#34;, totalCompensationAmount: 510.00, eligiblePassengerIds: [&#34;pax-1&#34;, &#34;pax-2&#34;, &#34;pax-3&#34;]</text></g><g class="box"><rect x="13021" y="40" width="149" height="34" rx="4" fill="#f8d4bc" stroke="#d38e5f"/><text class="box-title" x="13033" y="62">FinanceTranslator</text></g><g class="box"><rect x="13210" y="180" width="1006" height="50" rx="4" fill="#bcd6fe" stroke="#679ac3"/><text class="box-title" x="13222" y="202">ApproveDisbursement</text><text class="code" x="13222" y="222">flightId: &#34;HLT-421&#34;, totalAmount: 510.00, billingAccountIds: [&#34;acc-pax1&#34;, &#34;acc-pax2&#34;, &#34;acc-pax3&#34;], customerDefinition: &#34;billable_account&#34;</text></g><g class="box"><rect x="14257" y="440" width="970" height="50" rx="4" fill="#d3f1a2" stroke="#84af49"/><text class="box-title" x="14269" y="462">DisbursementApproved</text><text class="code" x="14269" y="482">flightId: &#34;HLT-421&#34;, disbursementId: &#34;disb-9901&#34;, totalAmount: 510.00, approvedAt: &#34;2024-06-15T15:10:00Z&#34;, boundedContext: &#34;Finance&#34;</text></g><g class="box"><rect x="15267" y="180" width="574" height="50" rx="4" fill="#bcd6fe" stroke="#679ac3"/><text class="box-title" x="15279" y="202">IssuePayout</text><text class="code" x="15279" y="222">disbursementId: &#34;disb-9901&#34;, paymentRails: &#34;ACH&#34;, scheduledDate: &#34;2024-06-16&#34;</text></g><g class="box"><rect x="15882" y="440" width="726" height="50" rx="4" fill="#d3f1a2" stroke="#84af49"/><text class="box-title" x="15894" y="462">PayoutIssued</text><text class="code" x="15894" y="482">disbursementId: &#34;disb-9901&#34;, paymentRails: &#34;ACH&#34;, scheduledDate: &#34;2024-06-16&#34;, totalAmount: 510.00</text></g><g class="box"><rect x="16647" y="180" width="315" height="210" rx="4" fill="#bcd6fe" stroke="#679ac3"/><text class="box-title" x="16659" y="202">FinanceSettlementReport</text><text class="code" x="16659" y="222">disbursementId: &#34;disb-9901&#34;</text><text class="code" x="16659" y="238">  flightId: &#34;HLT-421&#34;</text><text class="code" x="16659" y="254">  totalAmount: 510.00</text><text class="code" x="16659" y="270">  paymentRails: &#34;ACH&#34;</text><text class="code" x="16659" y="286">  scheduledDate: &#34;2024-06-16&#34;</text><text class="code" x="16659" y="302">  status: &#34;approved&#34;</text><text class="code" x="16659" y="318">  billingAccounts: [</text><text class="code" x="16659" y="334">    { accountId: &#34;acc-pax1&#34;, amount: 170.00 }</text><text class="code" x="16659" y="350">    { accountId: &#34;acc-pax2&#34;, amount: 170.00 }</text><text class="code" x="16659" y="366">    { accountId: &#34;acc-pax3&#34;, amount: 170.00 }</text><text class="code" x="16659" y="382">  ]</text></g><g class="box"><rect x="17002" y="860" width="510" height="50" rx="4" fill="#d3f1a2" stroke="#84af49"/><text class="box-title" x="17014" y="882">Finance.PayoutFailed</text><text class="code" x="17014" y="902">disbursementId: &#34;disb-9901&#34;, failureCode: &#34;R03&#34;, totalAmount: 510.00</text></g><g class="box"><rect x="17552" y="40" width="195" height="34" rx="4" fill="#f8d4bc" stroke="#d38e5f"/><text class="box-title" x="17564" y="62">PayoutRecoveryProcessor</text></g><g class="box"><rect x="17787" y="180" width="603" height="50" rx="4" fill="#bcd6fe" stroke="#679ac3"/><text class="box-title" x="17799" y="202">ReverseAndReissuePayout</text><text class="code" x="17799" y="222">disbursementId: &#34;disb-9901&#34;, newPaymentRails: &#34;WIRE&#34;, scheduledDate: &#34;2024-06-17&#34;</text></g><g class="box"><rect x="18430" y="440" width="618" height="50" rx="4" fill="#d3f1a2" stroke="#84af49"/><text class="box-title" x="18442" y="462">PayoutReversed</text><text class="code" x="18442" y="482">disbursementId: &#34;disb-9901&#34;, failureCode: &#34;R03&#34;, reversedAt: &#34;2024-06-16T09:00:00Z&#34;</text></g><g class="box"><rect x="19088" y="440" width="754" height="50" rx="4" fill="#d3f1a2" stroke="#84af49"/><text class="box-title" x="19100" y="462">PayoutReissued</text><text class="code" x="19100" y="482">disbursementId: &#34;disb-9901&#34;, newPaymentRails: &#34;WIRE&#34;, scheduledDate: &#34;2024-06-17&#34;, totalAmount: 510.00</text></g><g class="box"><rect x="19882" y="180" width="632" height="50" rx="4" fill="#bcd6fe" stroke="#679ac3"/><text class="box-title" x="19894" y="202">PayoutRecoveryReport</text><text class="code" x="19894" y="222">disbursementId: &#34;disb-9901&#34;, status: &#34;reissued_via_wire&#34;, scheduledDate: &#34;2024-06-17&#34;</text></g><g class="box"><rect x="20554" y="860" width="790" height="50" rx="4" fill="#d3f1a2" stroke="#84af49"/><text class="box-title" x="20566" y="882">Finance.PartialDisbursementRejected</text><text class="code" x="20566" y="902">flightId: &#34;HLT-421&#34;, rejectedPassengerIds: [&#34;pax-3&#34;], rejectedAmount: 170.00, reason: &#34;no_billable_account&#34;</text></g><g class="box"><rect x="21384" y="40" width="248" height="34" rx="4" fill="#f8d4bc" stroke="#d38e5f"/><text class="box-title" x="21396" y="62">CompensationRecoveryTranslator</text></g><g class="box"><rect x="21672" y="180" width="452" height="50" rx="4" fill="#bcd6fe" stroke="#679ac3"/><text class="box-title" x="21684" y="202">EscalateUnresolvedClaim</text><text class="code" x="21684" y="222">flightId: &#34;HLT-421&#34;, passengerIds: [&#34;pax-3&#34;], amount: 170.00</text></g><g class="box"><rect x="22164" y="440" width="718" height="50" rx="4" fill="#d3f1a2" stroke="#84af49"/><text class="box-title" x="22176" y="462">ClaimEscalated</text><text class="code" x="22176" y="482">flightId: &#34;HLT-421&#34;, passengerIds: [&#34;pax-3&#34;], amount: 170.00, escalatedAt: &#34;2024-06-16T10:00:00Z&#34;</text></g><g class="box"><rect x="22923" y="180" width="538" height="50" rx="4" fill="#bcd6fe" stroke="#679ac3"/><text class="box-title" x="22935" y="202">EscalatedClaimsQueue</text><text class="code" x="22935" y="222">flightId: &#34;HLT-421&#34;, pendingPassengers: [&#34;pax-3&#34;], pendingAmount: 170.00</text></g><g class="box"><rect x="23501" y="860" width="517" height="50" rx="4" fill="#d3f1a2" stroke="#84af49"/><text class="box-title" x="23513" y="882">Finance.PayoutIssued</text><text class="code" x="23513" y="902">disbursementId: &#34;disb-9901&#34;, flightId: &#34;HLT-421&#34;, totalAmount: 510.00</text></g><g class="box"><rect x="24058" y="40" width="164" height="34" rx="4" fill="#f8d4bc" stroke="#d38e5f"/><text class="box-title" x="24070" y="62">MarketingTranslator</text></g><g class="box"><rect x="24262" y="180" width="1136" height="50" rx="4" fill="#bcd6fe" stroke="#679ac3"/><text class="box-title" x="24274" y="202">TagDelayedTravelers</text><text class="code" x="24274" y="222">flightId: &#34;HLT-421&#34;, travelerIds: [&#34;visitor-a&#34;, &#34;visitor-b&#34;, &#34;visitor-c&#34;], segmentTag: &#34;delayed_flight_2024_06&#34;, customerDefinition: &#34;booking_page_visitor&#34;</text></g><g class="box"><rect x="25438" y="440" width="560" height="50" rx="4" fill="#d3f1a2" stroke="#84af49"/><text class="box-title" x="25450" y="462">DelayedTravelerTagged</text><text class="code" x="25450" y="482">flightId: &#34;HLT-421&#34;, segmentTag: &#34;delayed_flight_2024_06&#34;, travelerCount: 3</text></g><g class="box"><rect x="26038" y="180" width="560" height="50" rx="4" fill="#bcd6fe" stroke="#679ac3"/><text class="box-title" x="26050" y="202">SendRecoveryOffer</text><text class="code" x="26050" y="222">segmentTag: &#34;delayed_flight_2024_06&#34;, offerId: &#34;offer-77&#34;, channel: &#34;email&#34;</text></g><g class="box"><rect x="26638" y="440" width="661" height="50" rx="4" fill="#d3f1a2" stroke="#84af49"/><text class="box-title" x="26650" y="462">RecoveryOfferSent</text><text class="code" x="26650" y="482">segmentTag: &#34;delayed_flight_2024_06&#34;, offerId: &#34;offer-77&#34;, sentAt: &#34;2024-06-15T16:00:00Z&#34;</text></g><g class="box"><rect x="27339" y="180" width="279" height="146" rx="4" fill="#bcd6fe" stroke="#679ac3"/><text class="box-title" x="27351" y="202">MarketingCampaignDashboard</text><text class="code" x="27351" y="222">segmentTag: &#34;delayed_flight_2024_06&#34;</text><text class="code" x="27351" y="238">  activeCampaigns: 1</text><text class="code" x="27351" y="254">  targetedTravelers: 3</text><text class="code" x="27351" y="270">  offersSent: 3</text><text class="code" x="27351" y="286">  offersAccepted: 0</text><text class="code" x="27351" y="302">  offersDeclined: 0</text><text class="code" x="27351" y="318">  conversionRate: 0.00</text></g><g class="box"><rect x="27658" y="40" width="225" height="34" rx="4" fill="#f8d4bc" stroke="#d38e5f"/><text class="box-title" x="27670" y="62">RecoveryOfferResponseScreen</text></g><g class="box"><rect x="27924" y="180" width="495" height="50" rx="4" fill="#bcd6fe" stroke="#679ac3"/><text class="box-title" x="27936" y="202">RespondToRecoveryOffer</text><text class="code" x="27936" y="222">offerId: &#34;offer-77&#34;, travelerId: &#34;visitor-a&#34;, response: &#34;accepted&#34;</text></g><g class="box"><rect x="28459" y="440" width="596" height="50" rx="4" fill="#d3f1a2" stroke="#84af49"/><text class="box-title" x="28471" y="462">RecoveryOfferAccepted</text><text class="code" x="28471" y="482">offerId: &#34;offer-77&#34;, travelerId: &#34;visitor-a&#34;, acceptedAt: &#34;2024-06-15T17:05:00Z&#34;</text></g><g class="box"><rect x="29095" y="180" width="416" height="50" rx="4" fill="#bcd6fe" stroke="#679ac3"/><text class="box-title" x="29107" y="202">MarketingConversionReport</text><text class="code" x="29107" y="222">offerId: &#34;offer-77&#34;, acceptedCount: 1, declinedCount: 0</text></g><g class="box"><rect x="29551" y="580" width="452" height="50" rx="4" fill="#d3f1a2" stroke="#84af49"/><text class="box-title" x="29563" y="602">Operations.WheelsDownRecorded</text><text class="code" x="29563" y="622">flightId: &#34;HLT-421&#34;, wheelsTouchTime: &#34;2024-06-15T14:28:00Z&#34;</text></g><g class="box"><rect x="30043" y="40" width="126" height="34" rx="4" fill="#f8d4bc" stroke="#d38e5f"/><text class="box-title" x="30055" y="62">OntimeVerifier</text></g><g class="box"><rect x="30209" y="180" width="625" height="50" rx="4" fill="#bcd6fe" stroke="#679ac3"/><text class="box-title" x="30221" y="202">CloseFlightOnTime</text><text class="code" x="30221" y="222">flightId: &#34;HLT-421&#34;, closedAt: &#34;2024-06-15T14:28:00Z&#34;, reason: &#34;on_time_wheels_down&#34;</text></g><g class="box"><rect x="30874" y="440" width="402" height="50" rx="4" fill="#d3f1a2" stroke="#84af49"/><text class="box-title" x="30886" y="462">FlightClosedOnTime</text><text class="code" x="30886" y="482">flightId: &#34;HLT-421&#34;, closedAt: &#34;2024-06-15T14:28:00Z&#34;</text></g><g class="box"><rect x="31316" y="180" width="538" height="50" rx="4" fill="#bcd6fe" stroke="#679ac3"/><text class="box-title" x="31328" y="202">FlightClosureRecord</text><text class="code" x="31328" y="222">flightId: &#34;HLT-421&#34;, status: &#34;on_time&#34;, closedAt: &#34;2024-06-15T14:28:00Z&#34;</text></g><g class="gwt"><rect x="728" y="980" width="240" height="120" rx="4" fill="#f8f8f8" stroke="#bbbbbb"/><text x="738" y="998">record wheels-down for an in-flight aircraft</text><text class="box-title" x="738" y="1018">Given</text><text x="738" y="1033">evt FlightDeparted { flightId: &#34;HLT-421&#34;, origin: &#34;JFK&#34; }</text><text class="box-title" x="738" y="1048">When</text><text x="738" y="1063">cmd RecordWheelsDown { flightId: &#34;HLT-421&#34;, wheelsTouchTime: &#34;2024-06-15T14:32:00Z&#34;, aircraftId: &#34;N42HL&#34; }</text><text class="box-title" x="738" y="1078">Then</text><text x="738" y="1093">evt WheelsDownRecorded { flightId: &#34;HLT-421&#34;, wheelsTouchTime: &#34;2024-06-15T14:32:00Z&#34; }</text></g><g class="gwt"><rect x="728" y="1112" width="240" height="120" rx="4" fill="#f8f8f8" stroke="#bbbbbb"/><text x="738" y="1130">reject duplicate wheels-down recording</text><text class="box-title" x="738" y="1150">Given</text><text x="738" y="1165">evt WheelsDownRecorded { flightId: &#34;HLT-421&#34;, wheelsTouchTime: &#34;2024-06-15T14:32:00Z&#34; }</text><text class="box-title" x="738" y="1180">When</text><text x="738" y="1195">cmd RecordWheelsDown { flightId: &#34;HLT-421&#34;, wheelsTouchTime: &#34;2024-06-15T14:33:00Z&#34;, aircraftId: &#34;N42HL&#34; }</text><text class="box-title" x="738" y="1210">Then</text><text x="738" y="1225">evt WheelsDownRejected { flightId: &#34;HLT-421&#34;, reason: &#34;already_recorded&#34; }</text></g><g class="gwt"><rect x="2230" y="980" width="240" height="120" rx="4" fill="#f8f8f8" stroke="#bbbbbb"/><text x="2240" y="998">record gate arrival after wheels-down</text><text class="box-title" x="2240" y="1018">Given</text><text x="2240" y="1033">evt WheelsDownRecorded { flightId: &#34;HLT-421&#34;, wheelsTouchTime: &#34;2024-06-15T14:32:00Z&#34; }</text><text class="box-title" x="2240" y="1048">When</text><text x="2240" y="1063">cmd RecordGateArrival { flightId: &#34;HLT-421&#34;, gateDoorOpenTime: &#34;2024-06-15T14:47:00Z&#34;, gateId: &#34;B12&#34; }</text><text class="box-title" x="2240" y="1078">Then</text><text x="2240" y="1093">evt GateOpened { flightId: &#34;HLT-421&#34;, gateDoorOpenTime: &#34;2024-06-15T14:47:00Z&#34;, gateId: &#34;B12&#34; }</text></g><g class="gwt"><rect x="2230" y="1112" width="240" height="120" rx="4" fill="#f8f8f8" stroke="#bbbbbb"/><text x="2240" y="1130">reject gate arrival without prior wheels-down</text><text class="box-title" x="2240" y="1150">Given</text><text x="2240" y="1165">evt FlightDeparted { flightId: &#34;HLT-421&#34;, origin: &#34;JFK&#34; }</text><text class="box-title" x="2240" y="1180">When</text><text x="2240" y="1195">cmd RecordGateArrival { flightId: &#34;HLT-421&#34;, gateDoorOpenTime: &#34;2024-06-15T14:47:00Z&#34;, gateId: &#34;B12&#34; }</text><text class="box-title" x="2240" y="1210">Then</text><text x="2240" y="1225">evt GateArrivalRejected { flightId: &#34;HLT-421&#34;, reason: &#34;wheels_down_not_recorded&#34; }</text></g><g class="gwt"><rect x="4728" y="980" width="240" height="120" rx="4" fill="#f8f8f8" stroke="#bbbbbb"/><text x="4738" y="998">evaluate as delayed when gate-door time exceeds threshold (Compensation context)</text><text class="box-title" x="4738" y="1018">Given</text><text x="4738" y="1033">evt Operations.GateOpened { flightId: &#34;HLT-421&#34;, gateDoorOpenTime: &#34;2024-06-15T14:47:00Z&#34; }</text><text class="box-title" x="4738" y="1048">When</text><text x="4738" y="1063">cmd EvaluateDelay { flightId: &#34;HLT-421&#34;, scheduledArrival: &#34;2024-06-15T14:30:00Z&#34;, actualArrivalTime: &#34;2024-06-15T14:47:00Z&#34;, onTimeDefinition: &#34;gate_door_open&#34; }</text><text class="box-title" x="4738" y="1078">Then</text><text x="4738" y="1093">evt DelayEvaluated { flightId: &#34;HLT-421&#34;, delayMinutes: 17, isDelayed: true }</text></g><g class="gwt"><rect x="4728" y="1112" width="240" height="120" rx="4" fill="#f8f8f8" stroke="#bbbbbb"/><text x="4738" y="1130">evaluate as on-time when gate-door time is within threshold</text><text class="box-title" x="4738" y="1150">Given</text><text x="4738" y="1165">evt Operations.GateOpened { flightId: &#34;HLT-421&#34;, gateDoorOpenTime: &#34;2024-06-15T14:44:00Z&#34; }</text><text class="box-title" x="4738" y="1180">When</text><text x="4738" y="1195">cmd EvaluateDelay { flightId: &#34;HLT-421&#34;, scheduledArrival: &#34;2024-06-15T14:30:00Z&#34;, actualArrivalTime: &#34;2024-06-15T14:44:00Z&#34;, onTimeDefinition: &#34;gate_door_open&#34; }</text><text class="box-title" x="4738" y="1210">Then</text><text x="4738" y="1225">evt DelayEvaluated { flightId: &#34;HLT-421&#34;, delayMinutes: 14, isDelayed: false }</text></g><g class="gwt"><rect x="6676" y="980" width="240" height="120" rx="4" fill="#f8f8f8" stroke="#bbbbbb"/><text x="6686" y="998">verify all passengers eligible for compensation</text><text class="box-title" x="6686" y="1018">Given</text><text x="6686" y="1033">evt DelayEvaluated { flightId: &#34;HLT-421&#34;, delayMinutes: 17, isDelayed: true }</text><text class="box-title" x="6686" y="1048">When</text><text x="6686" y="1063">cmd VerifyPassengerEligibility { flightId: &#34;HLT-421&#34;, passengerIds: [&#34;pax-1&#34;, &#34;pax-2&#34;, &#34;pax-3&#34;] }</text><text class="box-title" x="6686" y="1078">Then</text><text x="6686" y="1093">evt PassengerEligibilityVerified { flightId: &#34;HLT-421&#34;, eligibleIds: [&#34;pax-1&#34;, &#34;pax-2&#34;, &#34;pax-3&#34;], ineligibleIds: [] }</text></g><g class="gwt"><rect x="6676" y="1112" width="240" height="120" rx="4" fill="#f8f8f8" stroke="#bbbbbb"/><text x="6686" y="1130">mark passenger ineligible when already compensated for this flight</text><text class="box-title" x="6686" y="1150">Given</text><text x="6686" y="1165">evt CompensationCalculated { flightId: &#34;HLT-421&#34;, eligiblePassengerIds: [&#34;pax-3&#34;] }</text><text class="box-title" x="6686" y="1180">When</text><text x="6686" y="1195">cmd VerifyPassengerEligibility { flightId: &#34;HLT-421&#34;, passengerIds: [&#34;pax-3&#34;] }</text><text class="box-title" x="6686" y="1210">Then</text><text x="6686" y="1225">evt PassengerEligibilityVerified { flightId: &#34;HLT-421&#34;, eligibleIds: [], ineligibleIds: [&#34;pax-3&#34;] }</text></g><g class="gwt"><rect x="7819" y="980" width="240" height="120" rx="4" fill="#f8f8f8" stroke="#bbbbbb"/><text x="7829" y="998">calculate compensation for eligible passengers</text><text class="box-title" x="7829" y="1018">Given</text><text x="7829" y="1033">evt PassengerEligibilityVerified { flightId: &#34;HLT-421&#34;, eligibleIds: [&#34;pax-1&#34;, &#34;pax-2&#34;, &#34;pax-3&#34;], ineligibleIds: [] }</text><text class="box-title" x="7829" y="1048">When</text><text x="7829" y="1063">cmd CalculateCompensation { flightId: &#34;HLT-421&#34;, delayMinutes: 17, eligiblePassengerIds: [&#34;pax-1&#34;, &#34;pax-2&#34;, &#34;pax-3&#34;] }</text><text class="box-title" x="7829" y="1078">Then</text><text x="7829" y="1093">evt CompensationCalculated { flightId: &#34;HLT-421&#34;, totalCompensationAmount: 510.00, perPassengerAmount: 170.00 }</text></g><g class="gwt"><rect x="4508" y="980" width="240" height="120" rx="4" fill="#f8f8f8" stroke="#bbbbbb"/><text x="4518" y="998">CompensationProcessor suppresses EvaluateDelay for on-time arrivals</text><text class="box-title" x="4518" y="1018">Given</text><text x="4518" y="1033">evt Operations.GateOpened { flightId: &#34;HLT-421&#34;, gateDoorOpenTime: &#34;2024-06-15T14:44:00Z&#34; }</text><text class="box-title" x="4518" y="1048">When</text><text x="4518" y="1063">cmd EvaluateDelay { flightId: &#34;HLT-421&#34;, scheduledArrival: &#34;2024-06-15T14:30:00Z&#34;, actualArrivalTime: &#34;2024-06-15T14:44:00Z&#34;, onTimeDefinition: &#34;gate_door_open&#34; }</text><text class="box-title" x="4518" y="1078">Then</text><text x="4518" y="1093">evt DelayEvaluationSuppressed { flightId: &#34;HLT-421&#34;, reason: &#34;within_on_time_threshold&#34;, delayMinutes: 14 }</text></g><g class="gwt"><rect x="13210" y="980" width="240" height="120" rx="4" fill="#f8f8f8" stroke="#bbbbbb"/><text x="13220" y="998">approve disbursement for billable account holders (Finance context)</text><text class="box-title" x="13220" y="1018">Given</text><text x="13220" y="1033">evt Compensation.CompensationCalculated { flightId: &#34;HLT-421&#34;, totalCompensationAmount: 510.00 }</text><text class="box-title" x="13220" y="1048">When</text><text x="13220" y="1063">cmd ApproveDisbursement { flightId: &#34;HLT-421&#34;, totalAmount: 510.00, billingAccountIds: [&#34;acc-pax1&#34;, &#34;acc-pax2&#34;, &#34;acc-pax3&#34;], customerDefinition: &#34;billable_account&#34; }</text><text class="box-title" x="13220" y="1078">Then</text><text x="13220" y="1093">evt DisbursementApproved { flightId: &#34;HLT-421&#34;, disbursementId: &#34;disb-9901&#34;, totalAmount: 510.00 }</text></g><g class="gwt"><rect x="13210" y="1112" width="240" height="120" rx="4" fill="#f8f8f8" stroke="#bbbbbb"/><text x="13220" y="1130">partially reject disbursement for passengers without billable accounts</text><text class="box-title" x="13220" y="1150">Given</text><text x="13220" y="1165">evt Compensation.CompensationCalculated { flightId: &#34;HLT-421&#34;, totalCompensationAmount: 510.00 }</text><text class="box-title" x="13220" y="1180">When</text><text x="13220" y="1195">cmd ApproveDisbursement { flightId: &#34;HLT-421&#34;, totalAmount: 510.00, billingAccountIds: [&#34;acc-pax1&#34;, &#34;acc-pax2&#34;], customerDefinition: &#34;billable_account&#34; }</text><text class="box-title" x="13220" y="1210">Then</text><text x="13220" y="1225">evt PartialDisbursementRejected { flightId: &#34;HLT-421&#34;, rejectedPassengerIds: [&#34;pax-3&#34;], rejectedAmount: 170.00, reason: &#34;no_billable_account&#34; }</text></g><g class="gwt"><rect x="13210" y="1244" width="240" height="120" rx="4" fill="#f8f8f8" stroke="#bbbbbb"/><text x="13220" y="1262">reject full disbursement when no billable account exists</text><text class="box-title" x="13220" y="1282">Given</text><text x="13220" y="1297">evt Compensation.CompensationCalculated { flightId: &#34;HLT-421&#34;, totalCompensationAmount: 170.00 }</text><text class="box-title" x="13220" y="1312">When</text><text x="13220" y="1327">cmd ApproveDisbursement { flightId: &#34;HLT-421&#34;, totalAmount: 170.00, billingAccountIds: [], customerDefinition: &#34;billable_account&#34; }</text><text class="box-title" x="13220" y="1342">Then</text><text x="13220" y="1357">evt DisbursementRejected { flightId: &#34;HLT-421&#34;, reason: &#34;no_billable_account&#34; }</text></g><g class="gwt"><rect x="15267" y="980" width="240" height="120" rx="4" fill="#f8f8f8" stroke="#bbbbbb"/><text x="15277" y="998">issue payout via ACH after disbursement approval</text><text class="box-title" x="15277" y="1018">Given</text><text x="15277" y="1033">evt DisbursementApproved { disbursementId: &#34;disb-9901&#34;, totalAmount: 510.00 }</text><text class="box-title" x="15277" y="1048">When</text><text x="15277" y="1063">cmd IssuePayout { disbursementId: &#34;disb-9901&#34;, paymentRails: &#34;ACH&#34;, scheduledDate: &#34;2024-06-16&#34; }</text><text class="box-title" x="15277" y="1078">Then</text><text x="15277" y="1093">evt PayoutIssued { disbursementId: &#34;disb-9901&#34;, totalAmount: 510.00, scheduledDate: &#34;2024-06-16&#34; }</text></g><g class="gwt"><rect x="15267" y="1112" width="240" height="120" rx="4" fill="#f8f8f8" stroke="#bbbbbb"/><text x="15277" y="1130">reject payout when disbursement is not yet approved</text><text class="box-title" x="15277" y="1150">Given</text><text x="15277" y="1165">evt Compensation.CompensationCalculated { flightId: &#34;HLT-421&#34;, totalCompensationAmount: 510.00 }</text><text class="box-title" x="15277" y="1180">When</text><text x="15277" y="1195">cmd IssuePayout { disbursementId: &#34;disb-9901&#34;, paymentRails: &#34;ACH&#34;, scheduledDate: &#34;2024-06-16&#34; }</text><text class="box-title" x="15277" y="1210">Then</text><text x="15277" y="1225">evt PayoutRejected { disbursementId: &#34;disb-9901&#34;, reason: &#34;disbursement_not_approved&#34; }</text></g><g class="gwt"><rect x="17787" y="980" width="240" height="120" rx="4" fill="#f8f8f8" stroke="#bbbbbb"/><text x="17797" y="998">reverse and reissue payout after ACH return (R03)</text><text class="box-title" x="17797" y="1018">Given</text><text x="17797" y="1033">evt Finance.PayoutFailed { disbursementId: &#34;disb-9901&#34;, failureCode: &#34;R03&#34; }</text><text class="box-title" x="17797" y="1048">When</text><text x="17797" y="1063">cmd ReverseAndReissuePayout { disbursementId: &#34;disb-9901&#34;, newPaymentRails: &#34;WIRE&#34;, scheduledDate: &#34;2024-06-17&#34; }</text><text class="box-title" x="17797" y="1078">Then</text><text x="17797" y="1093">evt PayoutReversed { disbursementId: &#34;disb-9901&#34;, failureCode: &#34;R03&#34; }</text></g><g class="gwt"><rect x="17787" y="1112" width="240" height="120" rx="4" fill="#f8f8f8" stroke="#bbbbbb"/><text x="17797" y="1130">reject reissuance when disbursement is already reversed</text><text class="box-title" x="17797" y="1150">Given</text><text x="17797" y="1165">evt PayoutReversed { disbursementId: &#34;disb-9901&#34;, failureCode: &#34;R03&#34; }</text><text class="box-title" x="17797" y="1180">When</text><text x="17797" y="1195">cmd ReverseAndReissuePayout { disbursementId: &#34;disb-9901&#34;, newPaymentRails: &#34;WIRE&#34;, scheduledDate: &#34;2024-06-17&#34; }</text><text class="box-title" x="17797" y="1210">Then</text><text x="17797" y="1225">evt PayoutReversalRejected { disbursementId: &#34;disb-9901&#34;, reason: &#34;already_reversed&#34; }</text></g><g class="gwt"><rect x="21672" y="980" width="240" height="120" rx="4" fill="#f8f8f8" stroke="#bbbbbb"/><text x="21682" y="998">escalate unresolved claim for passenger without billable account</text><text class="box-title" x="21682" y="1018">Given</text><text x="21682" y="1033">evt Finance.PartialDisbursementRejected { flightId: &#34;HLT-421&#34;, rejectedPassengerIds: [&#34;pax-3&#34;], rejectedAmount: 170.00 }</text><text class="box-title" x="21682" y="1048">When</text><text x="21682" y="1063">cmd EscalateUnresolvedClaim { flightId: &#34;HLT-421&#34;, passengerIds: [&#34;pax-3&#34;], amount: 170.00 }</text><text class="box-title" x="21682" y="1078">Then</text><text x="21682" y="1093">evt ClaimEscalated { flightId: &#34;HLT-421&#34;, passengerIds: [&#34;pax-3&#34;], amount: 170.00 }</text></g><g class="gwt"><rect x="21672" y="1112" width="240" height="120" rx="4" fill="#f8f8f8" stroke="#bbbbbb"/><text x="21682" y="1130">reject escalation when claim is already escalated</text><text class="box-title" x="21682" y="1150">Given</text><text x="21682" y="1165">evt ClaimEscalated { flightId: &#34;HLT-421&#34;, passengerIds: [&#34;pax-3&#34;], amount: 170.00 }</text><text class="box-title" x="21682" y="1180">When</text><text x="21682" y="1195">cmd EscalateUnresolvedClaim { flightId: &#34;HLT-421&#34;, passengerIds: [&#34;pax-3&#34;], amount: 170.00 }</text><text class="box-title" x="21682" y="1210">Then</text><text x="21682" y="1225">evt ClaimEscalationRejected { flightId: &#34;HLT-421&#34;, reason: &#34;already_escalated&#34; }</text></g><g class="gwt"><rect x="24262" y="980" width="240" height="120" rx="4" fill="#f8f8f8" stroke="#bbbbbb"/><text x="24272" y="998">tag delayed travelers as booking-page visitors (Marketing context)</text><text class="box-title" x="24272" y="1018">Given</text><text x="24272" y="1033">evt Finance.PayoutIssued { disbursementId: &#34;disb-9901&#34;, flightId: &#34;HLT-421&#34; }</text><text class="box-title" x="24272" y="1048">When</text><text x="24272" y="1063">cmd TagDelayedTravelers { flightId: &#34;HLT-421&#34;, travelerIds: [&#34;visitor-a&#34;, &#34;visitor-b&#34;, &#34;visitor-c&#34;], segmentTag: &#34;delayed_flight_2024_06&#34;, customerDefinition: &#34;booking_page_visitor&#34; }</text><text class="box-title" x="24272" y="1078">Then</text><text x="24272" y="1093">evt DelayedTravelerTagged { flightId: &#34;HLT-421&#34;, segmentTag: &#34;delayed_flight_2024_06&#34;, travelerCount: 3 }</text></g><g class="gwt"><rect x="24262" y="1112" width="240" height="120" rx="4" fill="#f8f8f8" stroke="#bbbbbb"/><text x="24272" y="1130">skip tagging when no visitors match the flight</text><text class="box-title" x="24272" y="1150">Given</text><text x="24272" y="1165">evt Finance.PayoutIssued { disbursementId: &#34;disb-9901&#34;, flightId: &#34;HLT-421&#34; }</text><text class="box-title" x="24272" y="1180">When</text><text x="24272" y="1195">cmd TagDelayedTravelers { flightId: &#34;HLT-421&#34;, travelerIds: [], segmentTag: &#34;delayed_flight_2024_06&#34;, customerDefinition: &#34;booking_page_visitor&#34; }</text><text class="box-title" x="24272" y="1210">Then</text><text x="24272" y="1225">evt TravelerTaggingSkipped { flightId: &#34;HLT-421&#34;, reason: &#34;no_matching_visitors&#34; }</text></g><g class="gwt"><rect x="27924" y="980" width="240" height="120" rx="4" fill="#f8f8f8" stroke="#bbbbbb"/><text x="27934" y="998">traveler accepts recovery offer</text><text class="box-title" x="27934" y="1018">Given</text><text x="27934" y="1033">evt RecoveryOfferSent { offerId: &#34;offer-77&#34;, segmentTag: &#34;delayed_flight_2024_06&#34; }</text><text class="box-title" x="27934" y="1048">When</text><text x="27934" y="1063">cmd RespondToRecoveryOffer { offerId: &#34;offer-77&#34;, travelerId: &#34;visitor-a&#34;, response: &#34;accepted&#34; }</text><text class="box-title" x="27934" y="1078">Then</text><text x="27934" y="1093">evt RecoveryOfferAccepted { offerId: &#34;offer-77&#34;, travelerId: &#34;visitor-a&#34; }</text></g><g class="gwt"><rect x="27924" y="1112" width="240" height="120" rx="4" fill="#f8f8f8" stroke="#bbbbbb"/><text x="27934" y="1130">traveler declines recovery offer</text><text class="box-title" x="27934" y="1150">Given</text><text x="27934" y="1165">evt RecoveryOfferSent { offerId: &#34;offer-77&#34;, segmentTag: &#34;delayed_flight_2024_06&#34; }</text><text class="box-title" x="27934" y="1180">When</text><text x="27934" y="1195">cmd RespondToRecoveryOffer { offerId: &#34;offer-77&#34;, travelerId: &#34;visitor-b&#34;, response: &#34;declined&#34; }</text><text class="box-title" x="27934" y="1210">Then</text><text x="27934" y="1225">evt RecoveryOfferDeclined { offerId: &#34;offer-77&#34;, travelerId: &#34;visitor-b&#34; }</text></g><g class="gwt"><rect x="10787" y="980" width="240" height="120" rx="4" fill="#f8f8f8" stroke="#bbbbbb"/><text x="10797" y="998">close compensation case when flight is confirmed on time</text><text class="box-title" x="10797" y="1018">Given</text><text x="10797" y="1033">evt Operations.FlightClosedOnTime { flightId: &#34;HLT-421&#34;, closedAt: &#34;2024-06-15T14:28:00Z&#34; }</text><text class="box-title" x="10797" y="1048">When</text><text x="10797" y="1063">cmd CloseCompensationCase { flightId: &#34;HLT-421&#34;, reason: &#34;on_time_no_claim&#34; }</text><text class="box-title" x="10797" y="1078">Then</text><text x="10797" y="1093">evt CompensationCaseClosed { flightId: &#34;HLT-421&#34;, reason: &#34;on_time_no_claim&#34; }</text></g><g class="gwt"><rect x="10787" y="1112" width="240" height="120" rx="4" fill="#f8f8f8" stroke="#bbbbbb"/><text x="10797" y="1130">reject closure when compensation case is already closed</text><text class="box-title" x="10797" y="1150">Given</text><text x="10797" y="1165">evt CompensationCaseClosed { flightId: &#34;HLT-421&#34;, reason: &#34;on_time_no_claim&#34; }</text><text class="box-title" x="10797" y="1180">When</text><text x="10797" y="1195">cmd CloseCompensationCase { flightId: &#34;HLT-421&#34;, reason: &#34;on_time_no_claim&#34; }</text><text class="box-title" x="10797" y="1210">Then</text><text x="10797" y="1225">evt CompensationCaseClosureRejected { flightId: &#34;HLT-421&#34;, reason: &#34;already_closed&#34; }</text></g><g class="gwt"><rect x="30209" y="980" width="240" height="120" rx="4" fill="#f8f8f8" stroke="#bbbbbb"/><text x="30219" y="998">close flight on-time via wheels-down path</text><text class="box-title" x="30219" y="1018">Given</text><text x="30219" y="1033">evt Operations.WheelsDownRecorded { flightId: &#34;HLT-421&#34;, wheelsTouchTime: &#34;2024-06-15T14:28:00Z&#34; }</text><text class="box-title" x="30219" y="1048">When</text><text x="30219" y="1063">cmd CloseFlightOnTime { flightId: &#34;HLT-421&#34;, closedAt: &#34;2024-06-15T14:28:00Z&#34;, reason: &#34;on_time_wheels_down&#34; }</text><text class="box-title" x="30219" y="1078">Then</text><text x="30219" y="1093">evt FlightClosedOnTime { flightId: &#34;HLT-421&#34;, closedAt: &#34;2024-06-15T14:28:00Z&#34; }</text></g><g class="gwt"><rect x="30209" y="1112" width="240" height="120" rx="4" fill="#f8f8f8" stroke="#bbbbbb"/><text x="30219" y="1130">reject closure when wheels-down is missing</text><text class="box-title" x="30219" y="1150">Given</text><text x="30219" y="1165">evt FlightDeparted { flightId: &#34;HLT-421&#34;, origin: &#34;JFK&#34; }</text><text class="box-title" x="30219" y="1180">When</text><text x="30219" y="1195">cmd CloseFlightOnTime { flightId: &#34;HLT-421&#34;, closedAt: &#34;2024-06-15T14:28:00Z&#34;, reason: &#34;on_time_wheels_down&#34; }</text><text class="box-title" x="30219" y="1210">Then</text><text x="30219" y="1225">evt FlightClosureRejected { flightId: &#34;HLT-421&#34;, reason: &#34;wheels_down_not_recorded&#34; }</text></g></svg>